<svg xmlns="http://www.w3.org/2000/svg" width="80" height="80" viewBox="0 0 80 80">
  <g fill="none" fill-rule="evenodd">
    <path fill="#FFF" d="M40,80 C17.90861,80 0,62.09139 0,40 C0,17.90861 17.90861,0 40,0 C62.09139,0 80,17.90861 80,40 C80,62.09139 62.09139,80 40,80 Z M40,70 C56.5685425,70 70,56.5685425 70,40 C70,23.4314575 56.5685425,10 40,10 C23.4314575,10 10,23.4314575 10,40 C10,56.5685425 23.4314575,70 40,70 Z"/>
    <rect width="80" height="80"/>
    <path fill="#00528C" d="M3,24.6753929 C9.0135631,10.1884236 23.2966379,-2.84217094e-14 39.9593465,-2.84217094e-14 C56.6412948,-2.84217094e-14 70.9381108,10.2119655 76.9394907,24.7255926 L67.6944546,28.5441945 C63.1934197,17.6589741 52.4708077,10 39.9593465,10 C27.462315,10 16.7500089,17.6413177 12.2398366,28.5065447 L3,24.6753929 Z"/>
  </g>
</svg>
