<svg xmlns="http://www.w3.org/2000/svg" width="16" height="17" viewBox="0 0 16 17">
  <g fill="#A7ABAD" fill-rule="evenodd" transform="translate(0 .698)">
    <polygon points="4.8 6.006 4.8 10.531 6.4 10.531 6.4 6.006 7.434 7.053 8.566 5.908 5.6 2.905 2.634 5.908 3.766 7.053"/>
    <polygon points="8.566 9.148 7.434 10.294 10.4 13.297 13.366 10.294 12.234 9.148 11.2 10.196 11.2 5.671 9.6 5.671 9.6 10.196"/>
    <path d="M14.39768,14.5813602 L1.60008,14.5813602 L1.60008,1.62015113 L14.40008,1.62015113 L14.39768,14.5813602 Z M14.40008,0 L1.60008,0 C0.71768,0 8e-05,0.726637783 8e-05,1.62015113 L8e-05,14.5813602 C8e-05,15.4748736 0.71768,16.2015113 1.60008,16.2015113 L14.40008,16.2015113 C15.28248,16.2015113 16.00008,15.4748736 16.00008,14.5813602 L16.00008,1.62015113 C16.00008,0.726637783 15.28248,0 14.40008,0 L14.40008,0 Z"/>
  </g>
</svg>
