<svg xmlns="http://www.w3.org/2000/svg" width="18" height="19" viewBox="0 0 18 19">
  <g fill="#A7ABAD" fill-rule="evenodd" transform="translate(0 .043)">
    <path d="M6.89275064,12.2814137 L4.38706506,9.94085196 C3.89323956,9.47956941 3.8668583,8.70530136 4.32814085,8.21147586 C4.33588118,8.20318946 4.34373633,8.19501105 4.35170402,8.18694302 L4.35170402,8.18694302 C4.84800392,7.68439249 5.65011003,7.65609019 6.18059651,8.1224106 L8.19270402,9.89113949 L14.6662467,1.51646968 C15.094035,0.963049971 15.8838181,0.848995415 16.450704,1.25877173 L16.450704,1.25877173 C16.9994219,1.6554152 17.1227025,2.42178198 16.7260591,2.97049984 C16.7204728,2.97822782 16.7147967,2.98589035 16.7090317,2.99348589 L9.85107898,12.0290171 C9.18328126,12.908858 7.92867228,13.080753 7.04883139,12.4129553 C6.99459942,12.3717933 6.94250467,12.3278889 6.89275064,12.2814137 Z"/>
    <path fill-rule="nonzero" d="M16,15.2015113 L16,9.10075567 C16,8.54847092 16.4477153,8.10075567 17,8.10075567 L17,8.10075567 C17.5522847,8.10075567 18,8.54847092 18,9.10075567 L18,16.2267003 C18,17.3312698 17.1045695,18.2267003 16,18.2267003 L2,18.2267003 C0.8954305,18.2267003 1.3527075e-16,17.3312698 0,16.2267003 L0,2 C-1.3527075e-16,0.8954305 0.8954305,2.02906125e-16 2,0 L9.98740554,2.22044605e-16 C10.546646,1.19313796e-16 11,0.453353981 11,1.01259446 L11,1.01259446 C11,1.57183494 10.546646,2.02518892 9.98740554,2.02518892 L3,2.02518892 C2.44771525,2.02518892 2,2.47290417 2,3.02518892 L2,15.2015113 C2,15.7537961 2.44771525,16.2015113 3,16.2015113 L15,16.2015113 C15.5522847,16.2015113 16,15.7537961 16,15.2015113 Z"/>
  </g>
</svg>
